# xmcd
#
# Track frame offsets: 
#        150
#        11736
#        21999
#        28712
#        39064
#        47761
#        57006
#        67990
#        78793
#        88626
#        97273
#        106535
#        118465
#        130788
#        140759
#        151142
#        161229
#        172223
#        181476
#        195206
#        206271
#        216107
#
# Disc length: 3114 seconds
#
# Revision: 1
# Processed by: cddbd v1.5.1PL0 Copyright (c) Steve Scherf et al.
# Submitted via: ExactAudioCopy v0.95a5
#
DISCID=270c2816
DTITLE=Dave and Deke Combo - There's Nothing Like an Old Hillbilly: Lo
DTITLE=st and Found Treasures 1991-2005
DYEAR=1900
DGENRE=Rockabilly
TTITLE0=no more crying the blues
TTITLE1=hey mae
TTITLE2=laurie ann
TTITLE3=red headed woman
TTITLE4=moonshine
TTITLE5=this is it
TTITLE6=let's rock tonight
TTITLE7=hey baby
TTITLE8=alamo
TTITLE9=love me
TTITLE10=let's take a little ride
TTITLE11=sweet rockin' mama
TTITLE12=lookin' for money
TTITLE13=i'm gonna tell
TTITLE14=laughin' and jokin'
TTITLE15=carryin' on
TTITLE16=real cool rocket
TTITLE17=the stranger walks
TTITLE18=chew tobacco rag
TTITLE19=twin guitar twist
TTITLE20=muskrat
TTITLE21=in the meadow
EXTD=
EXTT0=
EXTT1=
EXTT2=
EXTT3=
EXTT4=
EXTT5=
EXTT6=
EXTT7=
EXTT8=
EXTT9=
EXTT10=
EXTT11=
EXTT12=
EXTT13=
EXTT14=
EXTT15=
EXTT16=
EXTT17=
EXTT18=
EXTT19=
EXTT20=
EXTT21=
PLAYORDER=
